<?xml version="1.0" standalone="no"?>
<!DOCTYPE svg PUBLIC "-//W3C//DTD SVG 20010904//EN"
 "http://www.w3.org/TR/2001/REC-SVG-20010904/DTD/svg10.dtd">
<svg version="1.0" xmlns="http://www.w3.org/2000/svg"
 width="128.000000pt" height="128.000000pt" viewBox="0 0 128.000000 128.000000"
 preserveAspectRatio="xMidYMid meet">
<metadata>
Created by potrace 1.13, written by Peter Selinger 2001-2015
</metadata>
<g transform="translate(0.000000,128.000000) scale(0.100000,-0.100000)"
fill="#000000" stroke="none">
<path d="M18 1273 c6 -2 12 -9 12 -15 0 -6 -7 -7 -16 -4 -13 5 -15 -7 -13 -87
1 -51 6 -98 13 -106 9 -12 8 -13 -4 -6 -9 5 -12 4 -7 -1 4 -4 23 -9 42 -10 31
-1 33 1 17 13 -16 14 -16 14 1 9 10 -3 30 -6 43 -6 13 0 24 -4 24 -9 0 -5 -10
-7 -21 -4 -16 4 -20 2 -17 -8 3 -8 12 -13 21 -13 9 1 13 -4 11 -11 -3 -7 0
-16 7 -21 7 -4 10 -3 6 3 -5 7 11 11 46 12 95 1 91 0 63 22 -15 11 -31 30 -37
41 -10 18 -9 19 13 7 20 -11 21 -10 11 3 -7 8 -10 18 -6 21 3 4 0 13 -6 21
-10 11 -9 14 1 12 7 -1 18 -5 24 -9 6 -3 14 -4 17 -1 9 9 -4 35 -14 28 -5 -3
-6 2 -3 10 4 11 0 16 -11 16 -9 0 -13 5 -10 10 5 8 11 8 20 0 15 -13 57 -92
44 -84 -12 7 1 -58 15 -75 9 -12 8 -13 -4 -6 -8 4 -24 15 -35 24 -10 9 -4 -4
15 -29 19 -24 30 -41 23 -37 -20 13 -26 -32 -8 -59 16 -25 17 -26 31 -6 9 14
11 28 4 51 -6 21 -5 31 2 31 6 0 8 11 6 25 -3 13 -1 22 3 19 12 -7 11 9 -1 42
-10 25 -9 26 15 22 14 -3 25 -1 25 4 0 5 4 7 8 4 5 -3 7 9 5 27 -3 28 -2 29 7
10 5 -13 12 -23 15 -23 4 0 4 4 1 9 -3 5 1 24 9 42 l14 34 1 -30 c1 -28 2 -29
10 -7 14 34 20 27 20 -24 0 -27 -4 -43 -10 -39 -17 10 -12 -91 5 -105 11 -9
15 -9 15 -1 0 7 5 9 12 5 8 -5 9 -2 5 9 -8 22 16 22 37 1 9 -8 16 -11 16 -7 0
5 9 19 21 31 11 12 17 27 13 34 -4 7 -3 8 5 4 8 -5 10 -28 7 -69 -4 -49 -2
-59 7 -47 11 14 14 14 29 -1 14 -15 15 -19 1 -39 -8 -12 -13 -30 -10 -41 3
-12 0 -22 -8 -25 -17 -7 -9 -72 11 -94 12 -12 14 -11 14 10 0 27 12 19 17 -11
3 -19 0 -20 -24 -15 -16 4 -36 17 -45 29 -17 22 -17 21 -11 -15 5 -34 3 -38
-23 -50 -16 -7 -35 -18 -42 -25 -11 -11 -10 -13 8 -13 17 0 19 -2 8 -14 -7 -7
-19 -11 -25 -9 -8 3 -13 -3 -13 -13 0 -16 2 -17 10 -4 5 8 10 11 10 6 0 -6 5
-5 12 2 18 18 23 15 23 -13 0 -19 -7 -28 -23 -32 -27 -6 -24 -29 4 -26 10 1
13 0 6 -3 -10 -5 -9 -10 4 -25 9 -11 14 -22 11 -26 -4 -3 -7 -1 -7 6 0 7 -5 9
-12 5 -7 -4 -10 -4 -6 0 3 4 -2 16 -13 27 -23 23 -29 24 -29 4 0 -25 -40 -96
-50 -90 -9 6 -24 -12 -25 -30 -1 -5 -6 -9 -13 -8 -7 2 -12 -2 -12 -7 0 -6 -5
-10 -10 -10 -6 0 2 19 19 43 20 30 27 48 20 58 -12 19 -11 42 1 34 6 -3 10 2
10 12 0 11 5 24 12 31 9 9 8 12 -5 12 -9 0 -17 -7 -17 -16 0 -14 -2 -14 -15 0
-18 17 -34 94 -33 153 0 41 -25 88 -76 138 -39 39 -136 106 -145 100 -5 -3
-21 -1 -35 5 -18 6 -26 6 -26 -1 0 -6 -9 -8 -20 -4 -11 3 -29 4 -39 0 -18 -5
-20 -16 -20 -133 -1 -111 2 -131 20 -161 11 -18 29 -35 40 -38 10 -3 19 -9 19
-13 0 -18 153 -33 183 -18 26 13 50 -8 37 -32 -5 -9 -7 -20 -4 -23 9 -9 -24
-50 -41 -53 -9 -1 -19 5 -23 14 -14 38 -66 64 -156 77 -26 4 -49 11 -52 16
-20 33 -24 -11 -22 -233 l3 -243 30 2 30 2 -32 -10 c-33 -10 -33 -10 -33 -74
l0 -65 128 0 c114 1 124 2 102 15 -22 12 -23 14 -8 20 10 4 25 5 33 2 32 -13
23 13 -10 29 -57 27 -54 36 10 34 3 0 11 4 18 10 6 6 21 17 32 24 19 14 19 15
-10 27 -42 18 -42 18 -15 39 14 11 19 20 11 20 -11 0 -11 3 -1 15 10 12 9 15
-5 15 -14 0 -9 8 18 35 34 33 56 44 58 28 0 -5 2 -18 3 -31 2 -12 26 -44 54
-70 29 -26 52 -51 52 -57 0 -5 13 -37 30 -69 23 -47 27 -63 18 -74 -10 -11 -6
-13 23 -10 29 3 34 6 31 28 -1 13 4 41 13 63 8 21 13 48 9 61 -7 30 16 53 64
62 20 3 52 16 70 27 32 19 34 22 27 63 -3 26 -2 44 3 44 14 0 22 38 8 43 -6 3
-4 8 7 12 21 9 52 -24 37 -39 -10 -10 13 -36 32 -36 10 0 10 2 1 8 -8 5 -9 13
-3 22 7 12 10 11 17 -5 9 -23 45 -31 36 -9 -5 13 8 19 31 15 20 -4 66 11 61
20 -4 5 2 6 11 2 16 -6 16 -7 0 -18 -15 -12 -15 -13 0 -19 18 -7 37 1 29 14
-3 4 5 6 17 2 17 -4 20 -2 15 11 -4 11 -2 14 9 10 16 -6 17 -12 5 -32 -5 -7
-15 -10 -22 -7 -8 4 -6 1 4 -7 15 -12 15 -16 3 -20 -8 -3 -16 -1 -18 5 -2 6
-15 12 -29 13 -13 1 -32 5 -41 10 -11 4 -18 3 -18 -5 0 -6 5 -8 10 -5 6 3 13
-1 16 -9 4 -9 18 -16 33 -16 15 0 32 -5 38 -11 8 -8 17 -6 34 10 25 23 45 28
33 9 -5 -9 -3 -9 9 1 9 7 14 18 10 23 -3 6 0 8 8 6 8 -3 22 -1 32 4 18 9 18 8
2 -16 -10 -14 -21 -26 -26 -26 -5 0 -9 -4 -9 -9 0 -6 10 -7 23 -5 12 3 31 7
42 9 11 1 12 0 3 -2 -9 -2 -20 -13 -23 -24 -7 -20 -25 -27 -25 -9 0 6 -8 10
-17 10 -14 0 -11 -6 12 -25 17 -13 26 -25 20 -25 -5 -1 -1 -6 10 -11 28 -13
-107 -2 -143 12 -27 11 -87 23 -65 13 25 -11 13 -24 -16 -19 -25 4 -30 2 -28
-15 1 -21 12 -26 22 -10 7 11 33 9 55 -5 8 -5 37 -10 65 -11 27 -1 73 -4 100
-8 35 -4 44 -3 30 3 -16 8 -9 10 29 10 49 1 57 12 13 17 -33 4 -34 5 -7 14 24
8 24 8 -6 9 -18 1 -34 7 -37 13 -3 10 7 12 39 9 39 -3 44 -1 44 17 0 11 -8 23
-17 25 -15 4 -15 5 -2 6 12 1 16 13 18 52 1 44 -1 50 -13 40 -11 -9 -16 -9
-21 0 -4 6 -1 15 6 20 19 12 2 11 -21 -1 -10 -5 -26 -7 -35 -4 -25 10 2 24 48
24 l37 0 0 108 c-1 73 -4 102 -10 90 -10 -16 -108 -49 -185 -63 -52 -9 -117
-43 -109 -56 4 -7 -2 -7 -15 1 -12 6 -24 19 -27 28 -3 9 -9 24 -13 32 -4 8 -5
23 -3 32 3 14 8 15 30 6 50 -20 166 -19 222 2 64 23 109 65 110 102 l0 26 -38
-37 c-49 -48 -125 -75 -195 -68 -61 5 -85 30 -111 114 -5 17 2 31 29 62 43 47
100 85 115 76 5 -3 10 -1 10 4 0 6 10 11 22 11 22 0 22 0 -2 -17 -14 -10 -27
-17 -31 -16 -3 1 -5 -19 -4 -45 1 -44 24 -104 43 -116 12 -7 53 5 47 14 -3 5
-1 20 5 35 12 32 19 106 10 100 -4 -2 -7 9 -8 25 -1 34 11 37 71 16 l37 -14 0
44 0 43 -46 7 c-25 3 -62 4 -82 1 -25 -5 -32 -3 -22 3 13 8 12 10 -3 10 -10 0
-15 5 -12 10 3 6 2 10 -3 10 -16 0 -22 -13 -11 -27 13 -15 1 -17 -19 -4 -11 6
-7 13 14 30 17 13 30 18 32 12 2 -6 17 3 34 19 16 17 38 30 49 30 11 0 18 4
15 9 -3 4 7 19 22 32 14 13 20 16 13 7 -12 -15 -11 -18 3 -18 14 0 16 14 16
90 l0 90 -156 0 c-143 0 -156 -1 -150 -17 6 -16 6 -16 -12 0 -15 14 -39 17
-130 17 l-111 0 -9 -32 -9 -33 -7 33 c-6 27 -12 32 -36 32 -35 0 -51 -24 -45
-68 2 -17 -1 -34 -6 -38 -5 -3 -6 -11 -2 -18 4 -7 0 -3 -9 7 -10 11 -18 27
-19 36 0 9 -9 -2 -20 -24 -11 -22 -17 -30 -15 -18 2 13 0 26 -5 29 -5 3 -9
-11 -9 -31 0 -22 -4 -34 -10 -30 -6 4 -9 24 -6 46 2 21 0 39 -4 39 -5 0 -12
16 -16 35 l-6 35 -242 -1 c-132 -1 -235 -3 -228 -6z m920 -28 c-3 -3 -9 2 -12
12 -6 14 -5 15 5 6 7 -7 10 -15 7 -18z m-674 -1 c5 -14 4 -15 -9 -4 -17 14
-19 20 -6 20 5 0 12 -7 15 -16z m23 -16 c-3 -7 -5 -2 -5 12 0 14 2 19 5 13 2
-7 2 -19 0 -25z m656 -49 c-5 -5 -8 3 -7 19 2 37 6 42 11 13 3 -13 1 -27 -4
-32z m-225 6 c-3 -3 -9 2 -12 12 -6 14 -5 15 5 6 7 -7 10 -15 7 -18z m265 5
c-3 -12 -8 -19 -11 -16 -5 6 5 36 12 36 2 0 2 -9 -1 -20z m83 -2 c4 -7 3 -8
-5 -4 -6 4 -14 0 -18 -11 -3 -10 -15 -29 -27 -43 -15 -17 -16 -20 -3 -11 9 8
20 11 24 7 3 -3 15 2 25 11 16 15 18 15 13 1 -4 -9 -2 -19 4 -23 6 -3 11 -2
11 3 0 6 8 13 17 17 12 4 8 -4 -10 -23 -15 -16 -27 -35 -25 -42 2 -7 -6 -18
-17 -24 -11 -6 -22 -20 -23 -31 -2 -11 -9 -26 -14 -32 -13 -16 4 -17 19 -2 7
7 13 8 17 0 4 -6 -4 -13 -19 -17 -14 -3 -25 -10 -25 -16 0 -5 -24 -33 -53 -62
-32 -32 -58 -70 -67 -95 -7 -22 -17 -41 -22 -41 -4 0 -8 -11 -8 -24 0 -14 -4
-27 -9 -31 -5 -3 -12 -19 -16 -35 -4 -17 -10 -28 -15 -25 -12 7 -33 -22 -25
-36 6 -8 2 -8 -14 0 -18 10 -21 9 -21 -9 0 -12 -4 -18 -10 -15 -5 3 -10 1 -10
-6 0 -9 -3 -9 -14 0 -10 8 -16 9 -21 1 -3 -5 -12 -10 -18 -9 -9 0 -9 2 1 6 15
6 16 39 1 49 -8 4 -9 -1 -4 -17 5 -19 4 -21 -4 -9 -6 8 -11 23 -11 32 0 16 3
16 38 -3 33 -19 35 -20 20 -2 -12 13 -14 23 -8 33 5 8 9 22 9 30 0 8 -5 3 -11
-12 -5 -16 -15 -28 -21 -28 -5 0 -7 3 -4 7 4 3 -1 12 -11 20 -15 13 -15 13 8
8 l25 -7 -25 18 c-14 11 -29 18 -34 16 -5 -2 -2 8 7 21 10 15 12 28 6 39 -7
12 -4 21 11 31 11 7 17 17 13 21 -4 4 0 4 10 0 21 -8 22 -18 3 -33 -11 -9 -15
-9 -18 1 -3 7 -7 8 -10 2 -4 -5 3 -21 14 -34 11 -14 17 -20 15 -15 -3 6 1 19
9 30 14 19 14 19 15 -1 1 -10 0 -25 -1 -33 -1 -8 4 -12 14 -8 8 3 17 1 20 -6
2 -7 5 -5 5 4 1 9 -5 19 -13 22 -12 5 -14 25 -6 47 1 3 2 9 1 13 -1 5 3 6 7 3
5 -3 7 -18 4 -33 -3 -16 -1 -24 4 -20 5 5 9 23 10 40 3 85 4 90 17 79 10 -8
16 3 29 51 10 34 19 70 20 79 3 15 5 15 27 -3 18 -15 21 -23 13 -31 -9 -9 -12
-9 -12 0 0 7 -4 12 -10 12 -5 0 -10 -12 -9 -27 0 -16 3 -23 5 -16 3 7 12 9 20
6 7 -3 11 -9 8 -14 -3 -5 0 -9 5 -9 6 0 10 -3 10 -7 -4 -27 2 -34 17 -19 8 9
20 16 25 16 5 0 9 9 9 20 0 11 6 23 14 26 8 3 12 13 9 24 -3 10 0 21 6 24 6 4
11 14 11 22 0 9 -5 12 -11 8 -8 -4 -9 1 -3 17 4 13 6 39 5 57 -1 17 3 32 9 32
5 0 10 5 10 11 0 5 -5 7 -12 3 -7 -5 -8 -3 -4 5 5 7 14 10 21 7 7 -2 21 4 31
15 20 22 21 22 30 7z m-770 -33 c6 -19 7 -32 3 -30 -10 7 -29 65 -21 65 4 0
12 -16 18 -35z m34 -16 c0 -6 -4 -7 -10 -4 -5 3 -10 11 -10 16 0 6 5 7 10 4 6
-3 10 -11 10 -16z m516 -22 c4 -12 2 -23 -5 -25 -6 -2 -8 -9 -4 -15 4 -7 -1
-6 -10 2 -20 16 -20 72 0 64 7 -3 15 -14 19 -26z m-281 -34 c-10 -40 -17 -20
-9 23 5 24 9 32 12 21 2 -10 1 -30 -3 -44z m386 34 c-10 -9 -11 -8 -5 6 3 10
9 15 12 12 3 -3 0 -11 -7 -18z m-886 2 c11 -17 -1 -21 -15 -4 -8 9 -8 15 -2
15 6 0 14 -5 17 -11z m625 -10 c0 -6 -4 -7 -10 -4 -5 3 -10 11 -10 16 0 6 5 7
10 4 6 -3 10 -11 10 -16z m-475 1 c3 -5 1 -10 -4 -10 -6 0 -11 5 -11 10 0 6 2
10 4 10 3 0 8 -4 11 -10z m995 -24 c0 -2 -7 -7 -16 -10 -8 -3 -12 -2 -9 4 6
10 25 14 25 6z m-400 -10 c0 -3 -4 -8 -10 -11 -5 -3 -10 -1 -10 4 0 6 5 11 10
11 6 0 10 -2 10 -4z m17 -97 c-2 -9 -13 -28 -26 -45 -13 -16 -21 -21 -18 -12
3 9 1 18 -5 20 -6 2 -12 19 -13 38 -1 19 0 29 2 23 3 -7 11 -13 19 -13 7 0 11
-6 8 -14 -3 -8 -1 -17 5 -21 14 -8 14 20 1 46 -7 12 -7 19 -1 19 6 0 8 8 6 18
-3 9 1 3 9 -14 8 -17 14 -37 13 -45z m330 65 c-3 -3 -12 -4 -19 -1 -8 3 -5 6
6 6 11 1 17 -2 13 -5z m-402 -93 c-2 -9 -4 -27 -4 -40 -2 -44 -15 -12 -15 38
-1 38 1 45 10 33 7 -9 10 -23 9 -31z m-631 -55 c-3 -8 -11 -17 -18 -19 -23 -9
-29 -86 -10 -116 31 -48 74 -80 60 -46 -5 13 -2 14 15 4 12 -6 19 -7 16 -1 -4
5 5 20 19 33 19 18 24 30 20 51 -3 17 -1 28 5 28 6 0 9 9 6 20 -5 18 -4 18 20
3 33 -22 83 -96 83 -124 0 -28 -37 -69 -56 -62 -8 3 -14 0 -14 -6 0 -21 -102
-13 -150 12 -66 33 -93 78 -87 146 3 41 9 59 27 73 27 22 72 25 64 4z m543 -2
c2 -5 -6 -10 -17 -10 -20 0 -25 7 -13 20 9 8 26 3 30 -10z m27 -16 c-5 -8 -2
-9 9 -5 13 5 17 1 17 -15 0 -16 -3 -18 -14 -9 -11 9 -15 8 -20 -4 -3 -9 -10
-14 -16 -10 -11 7 8 55 22 55 5 0 6 -5 2 -12z m-40 -22 c-6 -16 -24 -23 -24
-8 0 10 22 33 27 28 2 -2 1 -11 -3 -20z m94 -35 c-15 -5 -19 4 -11 24 6 18 7
18 13 -1 4 -10 3 -21 -2 -23z m-108 -1 c0 -5 -2 -10 -4 -10 -3 0 -8 5 -11 10
-3 6 -1 10 4 10 6 0 11 -4 11 -10z m485 -10 c3 -5 1 -10 -4 -10 -6 0 -11 5
-11 10 0 6 2 10 4 10 3 0 8 -4 11 -10z m-502 -110 c-6 -6 -33 30 -33 43 0 5 9
-1 19 -14 11 -13 17 -26 14 -29z m21 35 c3 3 2 0 -3 -6 -10 -12 -31 -4 -31 13
0 7 4 7 13 -1 8 -6 17 -9 21 -6z m-42 -45 c6 0 9 -2 6 -5 -12 -12 -37 7 -30
23 6 16 7 15 10 0 2 -10 8 -18 14 -18z m-45 -2 c-3 -8 -6 -5 -6 6 -1 11 2 17
5 13 3 -3 4 -12 1 -19z m101 -39 c-2 -7 -10 -4 -18 7 -9 11 -10 15 -2 10 7 -4
12 -2 13 6 0 10 2 10 6 1 2 -7 3 -18 1 -24z m-175 -149 c-3 -12 -8 -19 -11
-16 -5 6 5 36 12 36 2 0 2 -9 -1 -20z m257 16 c0 -3 -4 -8 -10 -11 -5 -3 -10
-1 -10 4 0 6 5 11 10 11 6 0 10 -2 10 -4z m-351 -33 c-13 -16 -25 -30 -26 -32
-2 -2 -3 0 -3 5 0 12 37 54 47 54 4 0 -4 -12 -18 -27z m-129 13 c0 -2 -7 -7
-16 -10 -8 -3 -12 -2 -9 4 6 10 25 14 25 6z m1007 -2 c-3 -3 -12 -4 -19 -1 -8
3 -5 6 6 6 11 1 17 -2 13 -5z m-300 -19 c0 -11 -4 -12 -14 -4 -7 6 -13 13 -13
15 0 2 6 4 13 4 8 0 14 -7 14 -15z m113 -30 c-7 -8 -19 -15 -26 -15 -8 0 -14
-5 -14 -11 0 -6 7 -8 16 -5 8 3 13 2 10 -3 -8 -13 -56 -20 -62 -9 -3 4 -8 7
-12 4 -4 -2 -16 0 -27 5 -19 7 -19 8 -1 8 15 1 16 4 6 16 -11 14 -10 14 14 6
17 -7 35 -7 51 -1 14 5 25 6 25 3 0 -4 5 -2 12 5 17 17 23 15 8 -3z m-765 -45
c-3 -6 -12 -10 -18 -9 -9 0 -9 2 1 6 6 2 12 9 12 14 0 6 -4 7 -10 4 -11 -7
-14 8 -3 19 9 9 26 -22 18 -34z m-41 -21 c-5 -9 1 -10 22 -5 27 7 28 6 12 -10
-14 -14 -20 -15 -32 -5 -14 12 -14 31 0 31 3 0 2 -5 -2 -11z m604 -25 c-4 -3
-12 5 -18 18 -12 22 -12 22 6 6 10 -10 15 -20 12 -24z m-618 -9 c0 -3 -9 -1
-20 5 -11 6 -18 15 -15 21 6 9 35 -12 35 -26z m859 9 c-6 -8 -17 -14 -23 -13
-7 0 -6 2 2 6 6 2 12 11 12 19 0 9 5 12 10 9 8 -5 7 -11 -1 -21z m-934 -32
c-3 -3 -16 5 -28 17 l-22 23 28 -17 c15 -10 25 -20 22 -23z m145 10 c-8 -3
-22 -13 -30 -22 -21 -23 -81 -43 -94 -30 -6 6 -2 16 12 28 12 11 19 22 16 25
-3 3 3 3 14 0 11 -3 28 -1 38 5 9 5 26 7 38 4 15 -4 17 -7 6 -10z m-223 2 c-3
-3 -12 -4 -19 -1 -8 3 -5 6 6 6 11 1 17 -2 13 -5z m1160 -9 c0 -17 0 -17 -22
-9 -13 5 -14 8 -3 15 19 12 25 11 25 -6z m-1132 -35 c3 -5 1 -10 -4 -10 -6 0
-11 5 -11 10 0 6 2 10 4 10 3 0 8 -4 11 -10z m375 -40 c13 -8 13 -11 1 -22 -9
-8 -12 -9 -7 -1 3 6 -2 16 -11 22 -10 6 -13 10 -8 11 6 0 17 -5 25 -10z m-356
-51 c10 15 26 14 26 -2 0 -6 -15 -17 -33 -22 -32 -10 -33 -10 -23 11 6 13 14
18 17 12 4 -7 9 -7 13 1z m923 5 c-3 -3 -12 -4 -19 -1 -8 3 -5 6 6 6 11 1 17
-2 13 -5z m-853 -19 c-4 -8 -8 -15 -10 -15 -2 0 -4 7 -4 15 0 8 4 15 10 15 5
0 7 -7 4 -15z m-117 -61 c-3 -3 -12 -4 -19 -1 -8 3 -5 6 6 6 11 1 17 -2 13 -5z
m-54 -31 c-7 -2 -19 -2 -25 0 -7 3 -2 5 12 5 14 0 19 -2 13 -5z"/>
<path d="M1035 1070 c-3 -5 -1 -10 4 -10 6 0 11 5 11 10 0 6 -2 10 -4 10 -3 0
-8 -4 -11 -10z"/>
<path d="M675 721 c-3 -6 4 -15 15 -21 20 -11 21 -10 10 9 -12 23 -16 25 -25
12z"/>
<path d="M740 692 c0 -5 7 -9 15 -9 8 0 12 4 9 9 -3 4 -9 8 -15 8 -5 0 -9 -4
-9 -8z"/>
<path d="M1252 1084 c4 -3 -3 -15 -15 -26 -18 -16 -19 -19 -4 -14 10 3 25 6
33 6 20 0 18 27 -3 34 -10 4 -14 4 -11 0z"/>
<path d="M0 1010 c0 -5 4 -10 9 -10 6 0 13 5 16 10 3 6 -1 10 -9 10 -9 0 -16
-4 -16 -10z"/>
<path d="M610 961 c0 -6 4 -13 10 -16 6 -3 7 1 4 9 -7 18 -14 21 -14 7z"/>
<path d="M406 897 c3 -10 9 -15 12 -12 3 3 0 11 -7 18 -10 9 -11 8 -5 -6z"/>
<path d="M1145 241 c-3 -5 -1 -12 5 -16 5 -3 10 1 10 9 0 18 -6 21 -15 7z"/>
<path d="M1140 150 c0 -5 8 -7 18 -3 13 5 14 3 6 -6 -7 -8 -39 -13 -83 -13
-40 0 -71 -4 -71 -10 0 -6 -13 -7 -31 -3 -21 5 -29 4 -25 -3 4 -7 36 -9 86 -6
46 3 88 1 98 -5 15 -9 15 -10 -5 -11 -13 0 -22 -5 -20 -11 3 -14 -42 -28 -100
-31 -47 -3 -55 -13 -21 -24 13 -4 24 -2 26 5 2 6 14 8 28 5 15 -4 24 -2 24 5
0 6 15 11 34 11 47 0 72 10 54 21 -10 7 -9 9 5 9 10 0 15 5 12 10 -4 6 8 10
27 11 l33 1 -32 10 c-33 11 -45 28 -20 28 8 0 7 4 -3 10 -19 13 -40 13 -40 0z"/>
<path d="M936 21 c5 -5 20 -12 34 -15 l25 -7 -25 15 c-28 17 -50 21 -34 7z"/>
<path d="M1095 20 c3 -5 15 -10 26 -10 11 0 17 5 14 10 -3 6 -15 10 -26 10
-11 0 -17 -4 -14 -10z"/>
</g>
</svg>
